<?xml version="1.0" encoding="iso-8859-1"?>
<!-- Generator: Adobe Illustrator 18.0.0, SVG Export Plug-In . SVG Version: 6.00 Build 0)  -->
<!DOCTYPE svg PUBLIC "-//W3C//DTD SVG 1.1//EN" "http://www.w3.org/Graphics/SVG/1.1/DTD/svg11.dtd">
<svg version="1.1" id="&#x56FE;&#x5C42;_1" xmlns="http://www.w3.org/2000/svg" xmlns:xlink="http://www.w3.org/1999/xlink" x="0px"
	 y="0px" viewBox="0 0 420 240" style="enable-background:new 0 0 420 240;" xml:space="preserve">
<path style="fill:#A5DEF1;" d="M286.733,222.649L168.001,17h237.464L286.733,222.649z M239.755,59l46.978,81.366L333.711,59H239.755
	z"/>
<g>
	<polygon style="fill:#36506C;" points="216.306,140.294 169.328,59 191.919,59 168.001,17 97.574,17 216.306,222.863 
		251.519,161.979 227.601,120.641 	"/>
	<polygon style="fill:#36506C;" points="251.519,79.305 275.438,120.767 311.12,59 263.284,59 	"/>
	<polygon style="fill:#36506C;" points="251.519,79.232 227.601,120.659 251.519,162.086 275.438,120.659 	"/>
</g>
<polygon style="fill:#233142;" points="14.719,17 85.146,17 109.064,59 86.473,59 133.451,140.294 144.746,120.695 168.664,162.104 
	133.451,222.872 "/>
</svg>
